<?xml version="1.0" encoding="UTF-8"?>
<svg width="14px" height="14px" viewBox="0 0 14 14" version="1.1" xmlns="http://www.w3.org/2000/svg" xmlns:xlink="http://www.w3.org/1999/xlink">
    <!-- Generator: Sketch 51.2 (57519) - http://www.bohemiancoding.com/sketch -->
    <title>Mask Copy 6</title>
    <desc>Created with Sketch.</desc>
    <defs></defs>
    <g id="Home" stroke="none" stroke-width="1" fill="none" fill-rule="evenodd">
        <g id="Home-4.1" transform="translate(-816.000000, -4518.000000)" fill="#FFFFFF">
            <g id="Group-16" transform="translate(0.000000, 4082.000000)">
                <g id="Hero">
                    <path d="M822.668938,450 C822.402887,450 822.157767,449.957524 821.940353,449.873778 C821.061199,449.548689 820.203097,449.146914 819.394055,448.68082 C818.611933,448.23687 817.819769,447.680032 817.041398,447.026355 C816.685332,446.723048 816.442813,446.333279 816.33828,445.897414 C816.113728,444.951954 816,443.977291 816,442.999672 C816,442.044679 816.11887,441.05994 816.353283,440.072667 C816.461687,439.656471 816.673657,439.293069 816.967898,439.015224 C817.735502,438.310684 818.48036,437.761026 819.248508,437.331797 C820.126028,436.822202 821.048979,436.408722 821.987296,436.105112 C822.406577,435.964953 822.871713,435.964651 823.293958,436.106078 C824.229371,436.408722 825.152322,436.822323 826.034259,437.334392 C826.85794,437.819913 827.621975,438.384112 828.306762,439.011905 C828.620482,439.291501 828.83584,439.661358 828.926338,440.0787 C829.159057,440.995863 829.278351,441.982231 829.278351,442.999672 L829.278351,442.999793 C829.278351,443.954605 829.15942,444.939404 828.925007,445.926617 C828.814364,446.351742 828.594894,446.717316 828.288554,446.990516 C827.52706,447.689143 826.782081,448.23862 826.014538,448.667547 C825.189768,449.164411 824.280912,449.578736 823.322088,449.893689 C823.113869,449.963195 822.887623,450 822.668938,450" id="Mask-Copy-6"></path>
                </g>
            </g>
        </g>
    </g>
</svg>