<?xml version="1.0" encoding="UTF-8"?>
<svg width="15px" height="16px" viewBox="0 0 15 16" version="1.1" xmlns="http://www.w3.org/2000/svg" xmlns:xlink="http://www.w3.org/1999/xlink">
    <!-- Generator: Sketch 51.2 (57519) - http://www.bohemiancoding.com/sketch -->
    <title>Mask</title>
    <desc>Created with Sketch.</desc>
    <defs></defs>
    <g id="Home" stroke="none" stroke-width="1" fill="none" fill-rule="evenodd">
        <g id="Home-4.1" transform="translate(-781.000000, -4517.000000)" stroke="#FFFFFF">
            <g id="Group-16" transform="translate(0.000000, 4082.000000)">
                <g id="Hero">
                    <path d="M788.668938,450 C788.402887,450 788.157767,449.957524 787.940353,449.873778 C787.061199,449.548689 786.203097,449.146914 785.394055,448.68082 C784.611933,448.23687 783.819769,447.680032 783.041398,447.026355 C782.685332,446.723048 782.442813,446.333279 782.33828,445.897414 C782.113728,444.951954 782,443.977291 782,442.999672 C782,442.044679 782.11887,441.05994 782.353283,440.072667 C782.461687,439.656471 782.673657,439.293069 782.967898,439.015224 C783.735502,438.310684 784.48036,437.761026 785.248508,437.331797 C786.126028,436.822202 787.048979,436.408722 787.987296,436.105112 C788.406577,435.964953 788.871713,435.964651 789.293958,436.106078 C790.229371,436.408722 791.152322,436.822323 792.034259,437.334392 C792.85794,437.819913 793.621975,438.384112 794.306762,439.011905 C794.620482,439.291501 794.83584,439.661358 794.926338,440.0787 C795.159057,440.995863 795.278351,441.982231 795.278351,442.999672 L795.278351,442.999793 C795.278351,443.954605 795.15942,444.939404 794.925007,445.926617 C794.814364,446.351742 794.594894,446.717316 794.288554,446.990516 C793.52706,447.689143 792.782081,448.23862 792.014538,448.667547 C791.189768,449.164411 790.280912,449.578736 789.322088,449.893689 C789.113869,449.963195 788.887623,450 788.668938,450" id="Mask"></path>
                </g>
            </g>
        </g>
    </g>
</svg>