<?xml version="1.0" encoding="UTF-8"?>
<svg width="62px" height="66px" viewBox="0 0 62 66" version="1.1" xmlns="http://www.w3.org/2000/svg" xmlns:xlink="http://www.w3.org/1999/xlink">
    <!-- Generator: Sketch 51.2 (57519) - http://www.bohemiancoding.com/sketch -->
    <title>Group 8</title>
    <desc>Created with Sketch.</desc>
    <defs>
        <path d="M30.1344875,63.2608696 C28.9323007,63.2608696 27.8246925,63.0689346 26.8422779,62.6905174 C22.8697039,61.2215606 18.9922551,59.406085 15.336492,57.2999805 C11.802369,55.293933 8.22287016,52.7777857 4.70569476,49.8240594 C3.09676538,48.4535239 2.00091116,46.6923025 1.52856492,44.7227881 C0.513895216,40.4505995 0,36.0464557 0,31.6289527 C0,27.3136878 0.537129841,22.8640138 1.59635535,18.4028893 C2.0861959,16.5222539 3.04400911,14.880174 4.37357631,13.6246903 C7.84209567,10.4411328 11.207836,7.95742904 14.6788155,6.01790449 C18.6440091,3.71523028 22.8144875,1.84686343 27.0543964,0.474964706 C28.9489749,-0.158366124 31.0507517,-0.159729299 32.9587244,0.479326864 C37.1855125,1.84686343 41.3559909,3.71577555 45.341139,6.02962779 C49.0630524,8.22352068 52.5154442,10.7729295 55.6097494,13.6096954 C57.0273349,14.8730855 58.0004556,16.5443373 58.409385,18.4301528 C59.4609567,22.5744756 60,27.0315106 60,31.6289527 L60,31.6294979 C60,35.9439449 59.4625968,40.3938915 58.4033713,44.8547434 C57.9034169,46.7757288 56.9117084,48.4276235 55.5274715,49.6621143 C52.0865604,52.8189536 48.7202733,55.3018395 45.2520273,57.2400008 C41.5251936,59.4851491 37.4184055,61.3573328 33.0858314,62.7804869 C32.1449658,63.0945623 31.1226424,63.2608696 30.1344875,63.2608696" id="path-1"></path>
    </defs>
    <g id="Resources" stroke="none" stroke-width="1" fill="none" fill-rule="evenodd">
        <g id="Article" transform="translate(-259.000000, -978.000000)">
            <g id="Group-12" transform="translate(260.000000, 971.000000)">
                <g id="Group-13">
                    <g id="Group-8" transform="translate(0.000000, 8.000000)">
                        <mask id="mask-2" fill="white">
                            <use xlink:href="#path-1"></use>
                        </mask>
                        <use id="Mask" stroke="#00C670" stroke-width="2" xlink:href="#path-1"></use>
                        <path d="M40.2936031,23.5126598 C40.2936031,24.2195758 39.7888073,24.8505706 39.0818913,24.9767695 C38.022022,25.1788847 36.9867868,25.6334079 35.9771447,26.364958 C34.5889562,27.348906 33.8820402,28.5606178 33.8820402,29.998983 C33.8820402,31.3112502 35.118386,31.2609725 36.1033436,31.1604172 C39.5866871,30.7818203 41.9084954,34.5175617 40.0657383,37.5205919 C38.298953,40.3974232 33.8562451,40.2712243 31.8370619,37.7986335 C28.934486,34.2393182 29.9440776,27.7786891 33.1749727,24.7499143 C34.7150037,23.3114481 36.5063726,22.4280555 38.575783,22.0495091 C39.46016,21.8720431 40.293275,22.6035982 40.293275,23.5126345 L40.2936031,23.5126598 Z M28.1785038,23.5126598 C28.1785038,24.2195758 27.673708,24.8505706 26.9667919,24.9767695 C25.9069226,25.1788847 24.8716874,25.6334079 23.8620453,26.364958 C22.4738568,27.348906 21.7669408,28.5606178 21.7669408,29.998983 C21.7669408,31.3112502 23.0032867,31.2609725 23.9882443,31.1604172 C27.4715877,30.7818203 29.793396,34.5175617 27.9506389,37.5205919 C26.1838536,40.3974232 21.7411457,40.2712243 19.7219625,37.7986335 C16.8203962,34.2138261 17.8299626,27.7529445 21.0608577,24.7241697 C22.6008887,23.2857036 24.3922576,22.4023109 26.461668,22.0237645 C27.3450607,21.871932 28.1781757,22.6034973 28.1781757,23.5125083 L28.1785038,23.5126598 Z" id="Shape" fill="#00C670" fill-rule="nonzero" mask="url(#mask-2)"></path>
                    </g>
                </g>
            </g>
        </g>
    </g>
</svg>