<?xml version="1.0" encoding="UTF-8"?>
<svg width="29px" height="30px" viewBox="0 0 29 30" version="1.1" xmlns="http://www.w3.org/2000/svg" xmlns:xlink="http://www.w3.org/1999/xlink">
    <!-- Generator: Sketch 51.2 (57519) - http://www.bohemiancoding.com/sketch -->
    <title>Fill 1</title>
    <desc>Created with Sketch.</desc>
    <defs></defs>
    <g id="Home" stroke="none" stroke-width="1" fill="none" fill-rule="evenodd">
        <g id="Home-4.1" transform="translate(-110.000000, -6675.000000)" fill="#FFFFFF">
            <g id="Social" transform="translate(110.000000, 6674.110811)">
                <path d="M27.4307364,9.67078609 C27.2386856,8.78290848 26.781604,7.99594711 26.1159272,7.40103651 C24.6627658,6.06529536 23.0413033,4.86496793 21.2934842,3.8319352 C19.4218848,2.74246667 17.4633372,1.86247881 15.4782623,1.21853911 C14.5822937,0.917682362 13.5951905,0.918245915 12.7054613,1.21648616 C10.7143081,1.86247881 8.75572022,2.74218489 6.89358041,3.82642043 C5.26350363,4.73969817 3.68285849,5.90907044 2.05394907,7.40812117 C1.42957271,7.99932842 0.979696472,8.7724425 0.749605872,9.65794513 C0.252230179,11.7584678 0,13.853677 0,15.8854865 C0,17.96552 0.241361659,20.039274 0.717805386,22.0508761 C0.939643962,22.9781219 1.45432878,23.807551 2.20989221,24.4527788 C3.86166578,25.8435871 5.54274409,27.0284168 7.2024074,27.972851 C8.91927132,28.9645431 10.7402315,29.8194529 12.6058734,30.511053 C13.0499129,30.6825341 13.5487377,30.771817 14.0888226,30.7783784 L14.0888226,20.6947665 L10.7017087,20.6947665 L10.7017087,16.7473602 L14.0888226,16.7473602 L14.0888226,13.8424865 C14.0888226,10.474171 16.145831,8.64004782 19.1505341,8.64004782 C20.5897274,8.64004782 21.8267261,8.74720338 22.1872792,8.79510538 L22.1872792,12.3151776 L20.1151354,12.3161437 C18.4801074,12.3161437 18.1635114,13.0931221 18.1635114,14.2332299 L18.1635114,16.7473602 L22.0723546,16.7473602 L21.5633456,20.6947665 L18.1635114,20.6947665 L18.1635114,29.5457272 C19.2400987,29.0709741 20.2737755,28.5352365 21.2515398,27.9445928 C22.880409,27.0320799 24.4612151,25.8629492 26.0771628,24.3765381 C26.7273419,23.7952736 27.1930378,23.0174498 27.4278381,22.1130279 C27.9252541,20.0125857 28.1776453,17.917296 28.1776453,15.885728 L28.1776453,15.8854865 C28.1776453,13.7208395 27.9244892,11.6221283 27.4307364,9.67078609" id="Fill-1"></path>
            </g>
        </g>
    </g>
</svg>