<?xml version="1.0" encoding="UTF-8"?>
<svg width="29px" height="30px" viewBox="0 0 29 30" version="1.1" xmlns="http://www.w3.org/2000/svg" xmlns:xlink="http://www.w3.org/1999/xlink">
    <!-- Generator: Sketch 51.2 (57519) - http://www.bohemiancoding.com/sketch -->
    <title>Fill 6</title>
    <desc>Created with Sketch.</desc>
    <defs></defs>
    <g id="Home" stroke="none" stroke-width="1" fill="none" fill-rule="evenodd">
        <g id="Home-4.1" transform="translate(-205.000000, -6674.000000)" fill="#FFFFFF">
            <g id="Social" transform="translate(110.000000, 6674.110811)">
                <path d="M122.743257,8.67758589 C122.551174,7.78974608 122.094152,7.00277795 121.428503,6.40789268 C119.975404,5.07220839 118.35401,3.8719723 116.606266,2.8389433 C114.734746,1.74952115 112.776282,0.869610999 110.791291,0.225698709 C109.895361,-0.0751854795 108.9083,-0.0745816985 108.018608,0.223605602 C106.0275,0.869610999 104.069035,1.74927964 102.206975,2.83346902 C100.576927,3.74666762 98.9963896,4.91603038 97.3675093,6.41497704 C96.7431997,7.00615912 96.2933426,7.77924029 96.0632618,8.66470523 C95.5659073,10.7651385 95.3136879,12.8602585 95.3136879,14.8919815 C95.3136879,16.9719667 95.5550393,19.0455921 96.0314627,21.0571488 C96.2532918,21.9843552 96.7679548,22.813749 97.523486,23.4589493 C99.1751893,24.8496984 100.856196,26.0344375 102.515789,26.9788717 C104.23258,27.9705216 106.053462,28.8253547 107.919025,29.5169657 C108.380434,29.6951616 108.900451,29.7855275 109.465026,29.7855275 C109.929132,29.7855275 110.409219,29.7071567 110.851066,29.5593914 C112.885647,28.889275 114.814284,28.007795 116.564323,26.9506147 C118.193123,26.0381407 119.773862,24.8690597 121.389741,23.3826717 C122.039892,22.8014721 122.505568,22.0236814 122.740358,21.119298 C123.237753,19.018905 123.490134,16.9237045 123.490134,14.8922633 L123.490134,14.8919815 C123.490134,12.7274267 123.236948,10.628845 122.743257,8.67758589 M109.401911,19.5435062 C106.833346,19.5435062 104.751147,17.4613071 104.751147,14.8927423 C104.751147,12.3242177 106.833346,10.2420186 109.401911,10.2420186 C111.970435,10.2420186 114.052675,12.3242177 114.052675,14.8927423 C114.052675,17.4613071 111.970435,19.5435062 109.401911,19.5435062 M116.462123,9.5513737 C116.297854,9.12864651 116.101545,8.82691702 115.784641,8.51001251 C115.467736,8.193108 115.166047,7.99683893 114.743279,7.83253 C114.424161,7.70851339 113.944598,7.56094932 113.061548,7.52069725 C112.106568,7.47710426 111.820174,7.46788654 109.401911,7.46788654 C106.983647,7.46788654 106.697213,7.47710426 105.742193,7.52069725 C104.859183,7.56094932 104.379661,7.70851339 104.060502,7.83253 C103.637775,7.99683893 103.336045,8.193108 103.019141,8.51001251 C102.702236,8.82691702 102.505967,9.12864651 102.341658,9.5513737 C102.217642,9.87049207 102.070118,10.3500552 102.029825,11.233105 C101.986233,12.1880852 101.977015,12.4745189 101.977015,14.8927423 C101.977015,17.3110461 101.986233,17.5974396 102.029825,18.5524601 C102.070118,19.4354696 102.217642,19.9150327 102.341658,20.2341511 C102.505967,20.6569185 102.702236,20.9586078 103.019141,21.2755123 C103.336045,21.5924168 103.637775,21.7887261 104.060502,21.9529948 C104.379661,22.0770114 104.859183,22.2245352 105.742233,22.2648275 C106.697052,22.3084205 106.983486,22.317598 109.401911,22.317598 C111.820335,22.317598 112.106729,22.3084205 113.061548,22.2648275 C113.944598,22.2245352 114.424161,22.0770114 114.743279,21.9529948 C115.166047,21.7887261 115.467736,21.5924168 115.784641,21.2755123 C116.101545,20.9586078 116.297854,20.6569185 116.462123,20.2341511 C116.58614,19.9150327 116.733663,19.4354696 116.773956,18.5524198 C116.817549,17.5974396 116.826766,17.3110461 116.826766,14.8927423 C116.826766,12.4745189 116.817549,12.1880852 116.773956,11.2330647 C116.733663,10.3500552 116.58614,9.87049207 116.462123,9.5513737 M118.404124,18.6268499 C118.360129,19.5908064 118.20705,20.2491691 117.983128,20.8252567 C117.751678,21.4208263 117.442019,21.9259092 116.938546,22.4294223 C116.435033,22.9328951 115.92995,23.2425542 115.334381,23.4740036 C114.758293,23.6978856 114.099931,23.8510045 113.135974,23.895 C112.169965,23.939076 111.861553,23.949461 109.401911,23.949461 C106.942228,23.949461 106.633816,23.939076 105.667807,23.895 C104.70381,23.8510045 104.045488,23.6978856 103.4694,23.4740036 C102.873831,23.2425542 102.368748,22.9328951 101.865275,22.4294223 C101.361762,21.9259092 101.052103,21.4208263 100.820653,20.8252567 C100.596771,20.2491691 100.443653,19.5908064 100.399697,18.6268499 C100.355581,17.6608406 100.345196,17.3524293 100.345196,14.8927463 C100.345196,12.4331036 100.355581,12.1246923 100.399697,11.1586829 C100.443653,10.1946862 100.596771,9.5363637 100.820653,8.96027614 C101.052103,8.36470658 101.361762,7.85962367 101.865275,7.35615083 C102.368748,6.85263775 102.873831,6.54293836 103.4694,6.31148898 C104.045488,6.08760699 104.70381,5.93452839 105.667807,5.89053288 C106.633816,5.84645687 106.942228,5.83603158 109.401911,5.83603158 C111.861553,5.83603158 112.169965,5.84645687 113.135974,5.89053288 C114.099931,5.93452839 114.758293,6.08760699 115.334381,6.31148898 C115.92995,6.54293836 116.435033,6.85263775 116.938546,7.35615083 C117.442019,7.85962367 117.751678,8.36470658 117.983128,8.96027614 C118.20705,9.5363637 118.360129,10.1946862 118.404124,11.1586829 C118.4482,12.1246923 118.458625,12.4331036 118.458625,14.8927463 C118.458625,17.3524293 118.4482,17.6608406 118.404124,18.6268499 M109.401891,11.8738575 C107.73461,11.8738575 106.382986,13.2254816 106.382986,14.8927624 C106.382986,16.5600432 107.73461,17.9116673 109.401891,17.9116673 C111.069171,17.9116673 112.420796,16.5600432 112.420796,14.8927624 C112.420796,13.2254816 111.069171,11.8738575 109.401891,11.8738575 M114.236385,11.1450737 C113.636187,11.1450737 113.149579,10.6585068 113.149579,10.058268 C113.149579,9.45802916 113.636187,8.97146219 114.236385,8.97146219 C114.836624,8.97146219 115.323191,9.45802916 115.323191,10.058268 C115.323191,10.6585068 114.836624,11.1450737 114.236385,11.1450737" id="Fill-6"></path>
            </g>
        </g>
    </g>
</svg>