<?xml version="1.0" encoding="UTF-8"?>
<svg width="140px" height="30px" viewBox="0 0 140 30" version="1.1" xmlns="http://www.w3.org/2000/svg" xmlns:xlink="http://www.w3.org/1999/xlink">
    <!-- Generator: Sketch 51.2 (57519) - http://www.bohemiancoding.com/sketch -->
    <title>Logo</title>
    <desc>Created with Sketch.</desc>
    <defs></defs>
    <g id="Home" stroke="none" stroke-width="1" fill="none" fill-rule="evenodd">
        <g id="Home-4.1" transform="translate(-104.000000, -80.000000)" fill="#FFFFFF">
            <g id="Group-2" transform="translate(104.000000, 65.000000)">
                <path d="M139.660991,15 L134.574501,15 C134.387369,15 134.235493,15.1531949 134.235493,15.3419528 L134.235493,43.9428887 C134.235493,44.1319886 134.387369,44.2848415 134.574501,44.2848415 L139.660991,44.2848415 C139.848124,44.2848415 140,44.1319886 140,43.9428887 L140,15.3419528 C140,15.1531949 139.848124,15 139.660991,15 M33.9855413,32.7409581 L27.1185768,32.7409581 C26.9063573,32.7409581 26.743972,32.545703 26.783636,32.3350601 C27.0955242,30.6697497 28.455289,29.1771255 30.8015696,29.1771255 C32.7407006,29.1771255 34.1764033,30.5975977 34.3252282,32.364126 C34.3425176,32.5658782 34.1862345,32.7409581 33.9855413,32.7409581 M31.3399158,24.9936744 C25.5754083,24.9936744 20.9642091,28.8673163 20.9642091,34.8713243 C20.9642091,40.8756743 25.5754083,44.75 31.3399158,44.75 C34.2167453,44.75 37.1281538,43.5005043 38.9886347,41.3113222 C39.1157631,41.1618888 39.0842352,40.9324385 38.9265961,40.8161745 L35.4497207,38.2446891 C35.3012348,38.1345803 35.0957954,38.1674078 34.9808714,38.3123958 C34.0455458,39.492817 32.8247748,40.3329951 31.0707427,40.3329951 C28.9949911,40.3329951 27.4192777,39.0899965 26.8402505,37.136078 C26.7748218,36.9155184 26.9382241,36.6918812 27.1663771,36.6918812 L39.761575,36.6918812 C39.948708,36.6918812 40.1005839,36.5386864 40.1005839,36.3499284 L40.1005839,34.8713243 C40.1005839,28.8673163 36.7196481,24.9936744 31.3399158,24.9936744 M9.53021841,28.2086125 L6.33370342,28.2086125 C6.1465705,28.2086125 5.99469451,28.0557596 5.99469451,27.8666597 L5.99469451,22.3140294 C5.99469451,22.1252714 6.1465705,21.9720765 6.33370342,21.9720765 L9.91465451,21.9720765 C12.1049911,21.9720765 14.5645007,22.3984917 14.5645007,25.1481345 C14.5645007,28.1306473 11.720555,28.2086125 9.53021841,28.2086125 Z M15.1560712,33.1146099 C15.0387741,32.9179871 15.1425109,32.6601546 15.3635447,32.6078358 C18.9129679,31.7642382 20.7897212,28.8682395 20.7897212,25.1878011 C20.7897212,18.7953346 16.1012281,16.8585137 10.5292777,16.8585137 L0.339008907,16.8585137 C0.151875991,16.8585137 0,17.0117086 0,17.2008085 L0,43.9428887 C0,44.1319886 0.151875991,44.2848415 0.339008907,44.2848415 L5.6556856,44.2848415 C5.84315753,44.2848415 5.99469451,44.1319886 5.99469451,43.9428887 L5.99469451,33.6641282 C5.99469451,33.4750282 6.1465705,33.3221753 6.33370342,33.3221753 L8.74846387,33.3221753 C8.87457518,33.3221753 8.99017722,33.3926176 9.04882576,33.5054621 L14.5461942,44.1015548 C14.6045037,44.2143993 14.7204448,44.2848415 14.8465561,44.2848415 L21.2270427,44.2848415 C21.4904527,44.2848415 21.6535159,43.9945236 21.5172344,43.766783 L15.1560712,33.1146099 Z M113.64338,25.4581148 L108.53621,25.4581148 C108.386029,25.4581148 108.254494,25.5576231 108.21144,25.7022691 L104.786433,37.2729275 L104.709139,37.2729275 L101.32244,25.703295 C101.279725,25.557965 101.14785,25.4581148 100.99733,25.4581148 L95.2077362,25.4581148 C95.0548432,25.4581148 94.9209346,25.5613846 94.8805926,25.710134 L91.7589986,37.2729275 L91.6823826,37.2729275 L87.9536236,25.6944042 C87.9085354,25.5535196 87.778017,25.4581148 87.6312261,25.4581148 L82.2148808,25.4581148 C81.9792696,25.4581148 81.8155283,25.6944042 81.8965514,25.9176994 L88.4885796,44.0606915 C88.5373969,44.1954209 88.6645253,44.2850125 88.806909,44.2850125 L94.1151105,44.2850125 C94.2676645,44.2850125 94.400556,44.1827686 94.4415761,44.034703 L97.8309871,31.7722741 L97.9069251,31.7722741 L101.714334,44.0449616 C101.758066,44.1878979 101.889263,44.2850125 102.037749,44.2850125 L107.236789,44.2850125 C107.38019,44.2850125 107.507996,44.1940531 107.556136,44.0579558 L113.962387,25.9146218 C114.041376,25.6923525 113.877635,25.4581148 113.64338,25.4581148 M53.5387953,24.993777 C50.7334966,24.993777 48.8503021,26.5424815 48.0817689,28.0149304 L48.0048139,28.0149304 L48.0048139,25.8001018 C48.0048139,25.6113439 47.8532769,25.458149 47.665805,25.458149 L42.8105194,25.458149 C42.6230475,25.458149 42.4715105,25.6113439 42.4715105,25.8001018 L42.4715105,43.9430939 C42.4715105,44.1318518 42.6230475,44.2850467 42.8105194,44.2850467 L47.8963311,44.2850467 C48.083464,44.2850467 48.23534,44.1318518 48.23534,43.9430939 L48.23534,34.9100676 C48.23534,32.4698921 48.6967311,30.106656 51.6942479,30.106656 C54.6524396,30.106656 54.6907476,32.8956233 54.6907476,35.0653141 L54.6907476,43.9430939 C54.6907476,44.1318518 54.8426236,44.2850467 55.0297565,44.2850467 L60.1162462,44.2850467 C60.3037181,44.2850467 60.4552551,44.1318518 60.4552551,43.9430939 L60.4552551,33.9026745 C60.4552551,28.8677608 59.3795798,24.993777 53.5387953,24.993777 M126.151622,37.2730301 C126.151622,39.5969416 124.03824,40.7985639 121.77061,40.7985639 C120.502716,40.7985639 119.042266,40.1399627 119.042266,38.7451371 C119.042266,36.1883557 122.962226,36.0331091 124.729818,36.0331091 L125.812613,36.0331091 C126.000085,36.0331091 126.151622,36.186304 126.151622,36.3750619 L126.151622,37.2730301 Z M123.258859,24.9938454 C120.346094,24.9938454 117.397734,25.9201957 115.296896,27.7749479 C115.1518,27.9031802 115.147732,28.1309208 115.282318,28.2700956 L117.861159,30.9352761 C117.996084,31.0751348 118.216779,31.0689796 118.351366,30.928779 C119.542982,29.6905677 121.036316,28.9447686 122.797807,28.9447686 C124.670492,28.9447686 126.272987,30.1005692 126.467578,31.9361721 C126.488597,32.1379242 126.331974,32.3147139 126.130603,32.3150558 C121.305489,32.3242885 113.843903,32.5896439 113.843903,38.9390243 C113.843903,42.7353848 116.994652,44.749829 120.492207,44.749829 C122.836115,44.749829 125.141714,43.9356393 126.409608,41.9215371 L126.486902,41.9215371 L126.486902,43.9428203 C126.486902,44.1319202 126.638778,44.2847732 126.82591,44.2847732 L131.45067,44.2847732 C131.638142,44.2847732 131.789679,44.1319202 131.789679,43.9428203 L131.789679,34.7162487 C131.789679,28.441072 129.984117,24.9938454 123.258859,24.9938454 Z M75.7511675,32.7409581 L68.8848811,32.7409581 C68.6723225,32.7409581 68.5102762,32.545703 68.5499402,32.3350601 C68.8611504,30.6697497 70.2212542,29.1771255 72.5675348,29.1771255 C74.5063268,29.1771255 75.9420295,30.5975977 76.0908544,32.364126 C76.1081438,32.5658782 75.9518607,32.7409581 75.7511675,32.7409581 M73.10622,24.9936744 C67.3413735,24.9936744 62.7305133,28.8673163 62.7305133,34.8713243 C62.7305133,40.8756743 67.3413735,44.75 73.10622,44.75 C75.9823715,44.75 78.894119,43.5005043 80.7549389,41.3113222 C80.8820673,41.1618888 80.8502004,40.9324385 80.6929003,40.8158325 L77.2150079,38.2446891 C77.066861,38.1349222 76.8610826,38.1674078 76.7464976,38.3123958 C75.811511,39.492817 74.59074,40.3329951 72.8363689,40.3329951 C70.7606173,40.3329951 69.1852429,39.0899965 68.6062157,37.135736 C68.541126,36.9155184 68.7045283,36.6918812 68.9326813,36.6918812 L81.5285573,36.6918812 C81.7156902,36.6918812 81.8675662,36.5386864 81.8675662,36.3499284 L81.8675662,34.8713243 C81.8675662,28.8673163 78.4856133,24.9936744 73.10622,24.9936744" id="Logo"></path>
            </g>
        </g>
    </g>
</svg>