<?xml version="1.0" encoding="UTF-8"?>
<svg width="29px" height="30px" viewBox="0 0 29 30" version="1.1" xmlns="http://www.w3.org/2000/svg" xmlns:xlink="http://www.w3.org/1999/xlink">
    <!-- Generator: Sketch 51.2 (57519) - http://www.bohemiancoding.com/sketch -->
    <title>Fill 1</title>
    <desc>Created with Sketch.</desc>
    <defs></defs>
    <g id="Home" stroke="none" stroke-width="1" fill="none" fill-rule="evenodd">
        <g id="Home-4.1" transform="translate(-300.000000, -6675.000000)" fill="#FFFFFF">
            <g id="Social" transform="translate(110.000000, 6674.110811)">
                <path d="M218.056999,9.67042612 C217.864916,8.78258586 217.407893,7.99561733 216.742245,7.40077201 C215.289144,6.0650468 213.66775,4.8648101 211.920005,3.83178058 C210.048484,2.74239813 208.089978,1.86244728 206.105027,1.21853466 C205.209096,0.917690574 204.222035,0.918254104 203.332343,1.21644155 C201.341233,1.86244728 199.382768,2.74211636 197.520706,3.82630629 C195.890658,4.73950536 194.31012,5.9088687 192.681238,7.40781613 C192.056888,7.99899851 191.607071,8.77208007 191.37695,9.65754545 C190.879595,11.75802 190.627376,13.8531009 190.627376,15.8848249 C190.627376,17.9648112 190.868768,20.0384376 191.345191,22.0499953 C191.56702,22.9772021 192.081684,23.8065964 192.837215,24.4517971 C194.488919,25.8425469 196.169927,27.0272865 197.82952,27.9717212 C199.546272,28.9633716 201.367196,29.8182051 203.232759,30.5098165 C203.694129,30.6880124 204.214186,30.7783784 204.778761,30.7783784 C205.242868,30.7783784 205.722954,30.7000478 206.164802,30.5522422 C208.199384,29.8821254 210.128022,29.000645 211.878062,27.9434642 C213.506863,27.0309897 215.087602,25.8619081 216.703482,24.3755193 C217.353634,23.7943195 217.81927,23.0165284 218.05406,22.1121446 C218.551495,20.0117505 218.803836,17.9165892 218.803836,15.8851066 L218.803836,15.8848249 C218.803836,13.7203092 218.55069,11.6216862 218.056999,9.67042612 M213.393835,20.2454138 C213.18553,21.0247345 212.571766,21.6384983 211.792446,21.8468028 C210.379839,22.2253334 204.715606,22.2253334 204.715606,22.2253334 C204.715606,22.2253334 199.051413,22.2253334 197.638806,21.8468028 C196.859485,21.6384983 196.245722,21.0247345 196.037417,20.2454138 C195.658886,18.8328071 195.658886,15.8855897 195.658886,15.8855897 C195.658886,15.8855897 195.658886,12.9383722 196.037417,11.5258058 C196.245722,10.7464851 196.859485,10.1327213 197.638806,9.92441678 C199.051413,9.54592642 204.715606,9.54592642 204.715606,9.54592642 C204.715606,9.54592642 210.379839,9.54592642 211.792446,9.92441678 C212.571766,10.1327213 213.18553,10.7464851 213.393835,11.5258058 C213.772325,12.9383722 213.772325,15.8855897 213.772325,15.8855897 C213.772325,15.8855897 213.772325,18.8328071 213.393835,20.2454138 M202.904274,18.6026256 L207.610065,15.8856903 L202.904274,13.168594 L202.904274,18.6026256 Z" id="Fill-1"></path>
            </g>
        </g>
    </g>
</svg>