<?xml version="1.0" encoding="UTF-8"?>
<svg width="24px" height="26px" viewBox="0 0 24 26" version="1.1" xmlns="http://www.w3.org/2000/svg" xmlns:xlink="http://www.w3.org/1999/xlink">
    <!-- Generator: Sketch 51.2 (57519) - http://www.bohemiancoding.com/sketch -->
    <title>Fill 6</title>
    <desc>Created with Sketch.</desc>
    <defs></defs>
    <g id="Resources" stroke="none" stroke-width="1" fill="none" fill-rule="evenodd">
        <g id="Article" transform="translate(-816.000000, -2922.000000)" fill="#01B5CE">
            <g id="Author" transform="translate(260.000000, 2882.000000)">
                <path d="M579.171097,47.3303808 C579.008835,46.5803791 578.622766,45.9155887 578.060461,45.41306 C576.832956,44.2847422 575.463286,43.2708442 573.986881,42.3981941 C572.405917,41.477906 570.751506,40.7346029 569.074688,40.1906587 C568.317852,39.9364872 567.484033,39.9369972 566.732467,40.1888906 C565.05048,40.7346029 563.39607,41.477702 561.823096,42.3935697 C560.446115,43.1649932 559.110958,44.152811 557.734963,45.4190445 C557.207579,45.9184449 556.827562,46.5715044 556.633202,47.3194998 C556.213062,49.0938385 556,50.8636887 556,52.5799844 C556,54.3370495 556.203881,56.0887422 556.606339,57.7880025 C556.793729,58.5712589 557.22849,59.2718884 557.866724,59.8169207 C559.261999,60.9917544 560.682027,61.9925613 562.083966,62.7903711 C563.534224,63.6280662 565.072412,64.3501855 566.648344,64.9344231 C567.038119,65.0849538 567.477402,65.1612903 567.954327,65.1612903 C568.34638,65.1612903 568.751932,65.0950867 569.125182,64.9702621 C570.843892,64.4041821 572.473106,63.6595528 573.95145,62.766501 C575.327377,61.9956896 576.662704,61.0081098 578.027716,59.7524852 C578.57693,59.2615175 578.97031,58.6044798 579.168649,57.8405029 C579.588822,56.0661983 579.80202,54.2962801 579.80202,52.5802224 L579.80202,52.5799844 C579.80202,50.7514792 579.588142,48.9787047 579.171097,47.3303808 M567.90101,56.5093545 C565.731218,56.5093545 563.972283,54.7504192 563.972283,52.580627 C563.972283,50.4108689 565.731218,48.6519335 567.90101,48.6519335 C570.070768,48.6519335 571.829738,50.4108689 571.829738,52.580627 C571.829738,54.7504192 570.070768,56.5093545 567.90101,56.5093545 M573.865116,48.068512 C573.726351,47.7114137 573.560519,47.4565281 573.292814,47.1888234 C573.025109,46.9211186 572.770258,46.7553206 572.413125,46.6165208 C572.14355,46.5117579 571.73844,46.3871033 570.992485,46.3531004 C570.185766,46.3162753 569.943836,46.3084886 567.90101,46.3084886 C565.858185,46.3084886 565.61622,46.3162753 564.809468,46.3531004 C564.063546,46.3871033 563.65847,46.5117579 563.388861,46.6165208 C563.031763,46.7553206 562.776877,46.9211186 562.509173,47.1888234 C562.241468,47.4565281 562.07567,47.7114137 561.93687,48.068512 C561.832107,48.3380869 561.707486,48.7431973 561.67345,49.4891526 C561.636624,50.2958711 561.628838,50.5378356 561.628838,52.580627 C561.628838,54.6234864 561.636624,54.865417 561.67345,55.6721695 C561.707486,56.4180908 561.832107,56.8232012 561.93687,57.092776 C562.07567,57.4499084 562.241468,57.70476 562.509173,57.9724647 C562.776877,58.2401694 563.031763,58.4060015 563.388861,58.5447673 C563.65847,58.6495302 564.063546,58.7741508 564.809502,58.8081876 C565.616084,58.8450128 565.858049,58.8527654 567.90101,58.8527654 C569.943972,58.8527654 570.185902,58.8450128 570.992485,58.8081876 C571.73844,58.7741508 572.14355,58.6495302 572.413125,58.5447673 C572.770258,58.4060015 573.025109,58.2401694 573.292814,57.9724647 C573.560519,57.70476 573.726351,57.4499084 573.865116,57.092776 C573.969879,56.8232012 574.0945,56.4180908 574.128537,55.6721354 C574.165362,54.865417 574.173149,54.6234864 574.173149,52.580627 C574.173149,50.5378356 574.165362,50.2958711 574.128537,49.4891186 C574.0945,48.7431973 573.969879,48.3380869 573.865116,48.068512 M575.50562,55.7350102 C575.468455,56.5493113 575.339142,57.1054625 575.149984,57.5921118 C574.954467,58.0952185 574.692883,58.5218867 574.267575,58.9472289 C573.842233,59.372537 573.415564,59.6341212 572.912458,59.8296378 C572.425808,60.0187618 571.869657,60.1481088 571.055356,60.1852739 C570.239321,60.2225071 569.978791,60.2312798 567.90101,60.2312798 C565.823196,60.2312798 565.562666,60.2225071 564.74663,60.1852739 C563.932295,60.1481088 563.376178,60.0187618 562.889529,59.8296378 C562.386422,59.6341212 561.959754,59.372537 561.534446,58.9472289 C561.109104,58.5218867 560.847519,58.0952185 560.652003,57.5921118 C560.462879,57.1054625 560.333532,56.5493113 560.296401,55.7350102 C560.259134,54.9189749 560.250361,54.6584448 560.250361,52.5806304 C560.250361,50.5028501 560.259134,50.2423199 560.296401,49.4262847 C560.333532,48.6119496 560.462879,48.0558324 560.652003,47.569183 C560.847519,47.0660763 561.109104,46.6394081 561.534446,46.2141 C561.959754,45.7887579 562.386422,45.5271397 562.889529,45.3316231 C563.376178,45.1424991 563.932295,45.0131861 564.74663,44.9760209 C565.562666,44.9387878 565.823196,44.929981 567.90101,44.929981 C569.978791,44.929981 570.239321,44.9387878 571.055356,44.9760209 C571.869657,45.0131861 572.425808,45.1424991 572.912458,45.3316231 C573.415564,45.5271397 573.842233,45.7887579 574.267575,46.2141 C574.692883,46.6394081 574.954467,47.0660763 575.149984,47.569183 C575.339142,48.0558324 575.468455,48.6119496 575.50562,49.4262847 C575.542853,50.2423199 575.55166,50.5028501 575.55166,52.5806304 C575.55166,54.6584448 575.542853,54.9189749 575.50562,55.7350102 M567.900993,50.0304276 C566.49256,50.0304276 565.350777,51.1722105 565.350777,52.580644 C565.350777,53.9890776 566.49256,55.1308605 567.900993,55.1308605 C569.309427,55.1308605 570.45121,53.9890776 570.45121,52.580644 C570.45121,51.1722105 569.309427,50.0304276 567.900993,50.0304276 M571.984927,49.4147883 C571.47791,49.4147883 571.066849,49.0037614 571.066849,48.4967104 C571.066849,47.9896593 571.47791,47.5786324 571.984927,47.5786324 C572.491978,47.5786324 572.903005,47.9896593 572.903005,48.4967104 C572.903005,49.0037614 572.491978,49.4147883 571.984927,49.4147883" id="Fill-6"></path>
            </g>
        </g>
    </g>
</svg>