<?xml version="1.0" encoding="UTF-8"?>
<svg width="125px" height="290px" viewBox="0 0 125 290" version="1.1" xmlns="http://www.w3.org/2000/svg" xmlns:xlink="http://www.w3.org/1999/xlink">
    <!-- Generator: Sketch 51.2 (57519) - http://www.bohemiancoding.com/sketch -->
    <title>Mask</title>
    <desc>Created with Sketch.</desc>
    <defs>
        <filter x="-32.3%" y="-30.3%" width="164.5%" height="160.6%" filterUnits="objectBoundingBox" id="filter-1">
            <feGaussianBlur stdDeviation="20" in="SourceGraphic"></feGaussianBlur>
        </filter>
    </defs>
    <g id="Home" stroke="none" stroke-width="1" fill="none" fill-rule="evenodd">
        <g id="Home-4.1" transform="translate(-1555.000000, -1762.000000)" fill="#874AE1">
            <g id="Group-13" transform="translate(-111.000000, 1808.000000)">
                <g id="INTRO">
                    <g id="Group-12" transform="translate(1716.000000, 0.000000)">
                        <path d="M93.4169112,198 C89.6901321,198 86.2565467,197.399263 83.2110615,196.214856 C70.896082,191.617173 58.8759909,185.934922 47.5431253,179.343032 C36.587344,173.06431 25.4908975,165.189028 14.5876538,155.944169 C9.59997267,151.654534 6.2028246,146.142093 4.73855125,139.977716 C1.59307517,126.606206 0,112.82169 0,98.9953611 C0,85.4890268 1.66510251,71.5620062 4.94870159,57.5991462 C6.46720729,51.7129512 9.43642825,46.5734105 13.5580866,42.6438761 C24.3104966,32.6796693 34.7442916,24.9059325 45.504328,18.8354207 C57.7964282,11.6282878 70.7249112,5.78049214 83.8686287,1.48659057 C89.7418223,-0.495669643 96.2573303,-0.499936238 102.172046,1.50024367 C115.275089,5.78049214 128.203572,11.6299944 140.557531,18.8721134 C152.095462,25.738772 162.797877,33.7181586 172.390223,42.5969436 C176.784738,46.5512242 179.801412,51.7820701 181.069093,57.6844781 C184.328966,70.6557814 186,84.6058416 186,98.9953611 L186,98.9970678 C186,112.500842 184.33405,126.428716 181.050451,140.390723 C179.500592,146.403209 176.426296,151.573469 172.135162,155.437298 C161.468337,165.317879 151.032847,173.089056 140.281285,179.155302 C128.7281,186.182384 115.997057,192.042126 102.566077,196.496452 C99.6493941,197.479475 96.4801913,198 93.4169112,198" id="Mask" filter="url(#filter-1)"></path>
                    </g>
                </g>
            </g>
        </g>
    </g>
</svg>