<?xml version="1.0" encoding="UTF-8"?>
<svg width="24px" height="26px" viewBox="0 0 24 26" version="1.1" xmlns="http://www.w3.org/2000/svg" xmlns:xlink="http://www.w3.org/1999/xlink">
    <!-- Generator: Sketch 51.2 (57519) - http://www.bohemiancoding.com/sketch -->
    <title>Fill 1</title>
    <desc>Created with Sketch.</desc>
    <defs></defs>
    <g id="Resources" stroke="none" stroke-width="1" fill="none" fill-rule="evenodd">
        <g id="Article" transform="translate(-856.000000, -2922.000000)" fill="#01B5CE">
            <g id="Author" transform="translate(260.000000, 2882.000000)">
                <path d="M613.985543,49.4605362 C613.991765,49.5951195 613.994519,49.7304509 613.994519,49.8663944 C613.994519,54.0145737 610.836775,58.7984025 605.062511,58.7984025 C603.289364,58.7984025 601.639715,58.2786688 600.250358,57.3883378 C600.496063,57.4172742 600.745916,57.4317934 600.999237,57.4317934 C602.470065,57.4317934 603.823583,56.9300132 604.898243,56.0880003 C603.524018,56.0624301 602.365132,55.1547577 601.96553,53.9075667 C602.156694,53.9441878 602.353401,53.9641814 602.55565,53.9641814 C602.84209,53.9641814 603.119554,53.9255202 603.383212,53.8537741 C601.946897,53.5659059 600.864654,52.296613 600.864654,50.776073 C600.864654,50.7623018 600.864654,50.7491767 600.865334,50.7360856 C601.288431,50.9714534 601.772258,51.1129393 602.287163,51.1287847 C601.444402,50.5663093 600.89019,49.6048443 600.89019,48.5156646 C600.89019,47.9407102 601.045447,47.4016628 601.315328,46.9378638 C602.863478,48.8372977 605.177067,50.0865969 607.786072,50.217746 C607.732246,49.9878866 607.704636,49.7483364 607.704636,49.5019517 C607.704636,47.7688597 609.110586,46.3628753 610.844392,46.3628753 C611.747202,46.3628753 612.563033,46.7445575 613.135913,47.3547389 C613.850959,47.213899 614.522516,46.952315 615.129229,46.5927347 C614.894541,47.3257344 614.396909,47.9407102 613.748815,48.3292949 C614.383784,48.2534005 614.989137,48.0849504 615.551646,47.8350973 C615.131269,48.4645583 614.598444,49.0174449 613.985543,49.4605362 M619.171081,47.3303928 C619.00882,46.5803577 618.622751,45.9156017 618.060446,45.4130734 C616.832942,44.2847564 615.463273,43.270859 613.986869,42.3982095 C612.405906,41.477922 610.751496,40.7345854 609.074679,40.1906416 C608.317843,39.9365042 607.484025,39.9369802 606.73246,40.1889075 C605.050508,40.7345854 603.396065,41.477718 601.823092,42.3935851 C600.446112,43.1650081 599.110956,44.1528252 597.734996,45.4190579 C597.207578,45.9184579 596.827562,46.5715169 596.633201,47.3195119 C596.213062,49.0938493 596,50.8636984 596,52.5799929 C596,54.3370568 596.203881,56.0887483 596.606339,57.7880074 C596.793729,58.5712634 597.228489,59.2718584 597.866723,59.8169243 C599.261997,60.9917572 600.682024,61.9925635 602.083962,62.7903727 C603.534218,63.6280672 605.072406,64.350186 606.648337,64.9344232 C607.038111,65.0849199 607.477428,65.1612903 607.954319,65.1612903 C608.346372,65.1612903 608.751924,65.0950867 609.125207,64.9702282 C610.843882,64.4041826 612.473129,63.6595539 613.951438,62.7665027 C615.327364,61.9956918 616.66269,61.0081126 618.027701,59.7524889 C618.576915,59.2615215 618.970294,58.6044842 619.168633,57.8405079 C619.588806,56.0662044 619.802004,54.2962874 619.802004,52.5802309 L619.802004,52.5799929 C619.802004,50.7514889 619.58816,48.9787156 619.171081,47.3303928" id="Fill-1"></path>
            </g>
        </g>
    </g>
</svg>